<?xml version="1.0" encoding="utf-8"?>
<!-- Generator: Adobe Illustrator 22.0.0, SVG Export Plug-In . SVG Version: 6.00 Build 0)  -->
<svg version="1.1" id="Layer_1" xmlns="http://www.w3.org/2000/svg" xmlns:xlink="http://www.w3.org/1999/xlink" x="0px" y="0px"
	 viewBox="0 0 246.3 123.9" style="enable-background:new 0 0 246.3 123.9;" xml:space="preserve">
<style type="text/css">
	.st0{fill:#F7F6F0;}
	.st1{fill:#FFFFFF;}
	.st2{fill:#35EACC;}
	.st3{fill:#3BD4D0;}
	.st4{fill:#42BFD5;}
	.st5{fill:#49AADA;}
	.st6{fill:#4F95DE;}
	.st7{fill:#567FE3;}
	.st8{fill:#5D6AE8;}
	.st9{fill:#6355EC;}
	.st10{fill:#6A40F1;}
	.st11{fill:#712BF6;}
	.st12{fill:#7715FA;}
	.st13{fill:#8915FF;stroke:#5651C4;stroke-width:4.166667e-02;stroke-miterlimit:10;}
	.st14{fill:#942BFF;stroke:#5651C4;stroke-width:8.333334e-02;stroke-miterlimit:10;}
	.st15{fill:#9E40FF;stroke:#5651C4;stroke-width:0.125;stroke-miterlimit:10;}
	.st16{fill:#A955FF;stroke:#5651C4;stroke-width:0.1667;stroke-miterlimit:10;}
	.st17{fill:#B46AFF;stroke:#5651C4;stroke-width:0.2083;stroke-miterlimit:10;}
	.st18{fill:#BF80FF;stroke:#5651C4;stroke-width:0.25;stroke-miterlimit:10;}
	.st19{fill:#C995FF;stroke:#5651C4;stroke-width:0.2917;stroke-miterlimit:10;}
	.st20{fill:#D4AAFF;stroke:#5651C4;stroke-width:0.3333;stroke-miterlimit:10;}
	.st21{fill:#DFBFFF;stroke:#5651C4;stroke-width:0.375;stroke-miterlimit:10;}
	.st22{fill:#E9D4FF;stroke:#5651C4;stroke-width:0.4167;stroke-miterlimit:10;}
	.st23{fill:#F4EAFF;stroke:#5651C4;stroke-width:0.4583;stroke-miterlimit:10;}
	.st24{fill:#131516;}
	.st25{fill:#4800FF;}
	.st26{fill:#403F39;}
	.st27{fill:#4524EA;}
</style>
<path class="st27" d="M185,45.6v0.9c0,4.3-2.1,7-5.5,7c-3.4,0-5.5-2.8-5.5-7.5c0-4.7,2-7.5,5.5-7.5C183,38.5,185,41.2,185,45.6z
	 M114.8,78.6c-3.6,0-5.9,2.6-6.7,6.1h11.2c0.1-0.4,0.2-0.9,0.2-1.6C119.5,79.9,117.3,78.6,114.8,78.6z M91.9,53.6
	c3.6,0,5.7-2.6,5.7-7.5c0-5-2.1-7.5-5.7-7.5s-5.7,2.6-5.7,7.5C86.2,51,88.3,53.6,91.9,53.6z M132.9,43.8c0-3.7-1.9-5.6-5.2-5.6
	c-3.5,0-5.5,2.3-5.6,6.1h10.8V43.8z M203,38.2c-3.5,0-5.5,2.3-5.6,6.1h10.8v-0.4C208.2,40.1,206.3,38.2,203,38.2z M246.1,0.4v123
	H0.1V0.4H246.1z M161.5,32.3h3.9V28h-3.9V32.3z M161.7,36v20h3.4V36H161.7z M152.9,50.7c0,1.9-1.5,3-4.2,3c-3,0-4.8-1.5-5.4-4.4
	l-3.4,0.6c0.7,4.3,3.9,6.7,8.7,6.7c4.9,0,7.7-2.3,7.7-6.1c0-3.2-1.6-5.3-5.5-5.7l-3.2-0.4c-2.5-0.3-3.6-1.3-3.6-3c0-1.9,1.6-3,4.2-3
	c2.7,0,4.4,1.7,4.8,4.1l3.4-0.8c-0.4-3.7-3.5-6.1-8.1-6.1c-4.7,0-7.6,2.3-7.6,5.9c0,3.1,1.9,5.3,5.9,5.8l3.2,0.4
	C151.9,47.8,152.9,48.7,152.9,50.7z M118.7,46.3c0,6.6,3.4,10.3,9.1,10.3c4,0,7-1.9,8.4-5.6l-2.8-1.2c-0.9,2.4-2.8,3.8-5.3,3.8
	c-3.6,0-5.9-2.6-6-6.5h14.2v-2.4c0-6-3.1-9.1-8.5-9.1C122,35.5,118.7,39.6,118.7,46.3z M106.7,56.1h3.4v-8.6c0-2.4,0.1-5.1,2-7
	c1-1,2.3-1.6,4.4-1.6h0.2v-3.3c-0.2,0-0.5,0-0.7,0c-3,0-5.1,2.2-6.1,5.1V36h-3.2V56.1z M82.6,46c0,6.5,3.7,10.5,9.3,10.5
	s9.3-4,9.3-10.5c0-6.5-3.7-10.5-9.3-10.5S82.6,39.5,82.6,46z M55.8,48.4c0-5.2-3.4-7.1-7.9-8.1l-4.2-0.9c-3.2-0.7-4.7-2.1-4.7-4.9
	c0-2.9,2.4-4.6,5.9-4.6c4.2,0,6.3,2.1,6.8,5.9l3.8-0.8c-0.6-5.6-4.9-8.1-10.5-8.1c-6.1,0-9.9,3.2-9.9,8c0,4.9,3.1,7,7.1,7.9l4.1,0.8
	c3.3,0.7,5.4,1.8,5.4,5.1c0,3.6-3.2,4.9-6.3,4.9c-5,0-7.2-3.1-7.7-6.6l-3.8,0.6c0.5,5.2,4.2,9.1,11.4,9.1
	C52.5,56.7,55.8,52.8,55.8,48.4z M74.4,43.8v12.2h3.4V43.6c0-5.3-2.3-8.1-6.6-8.1c-3.1,0-5.4,1.5-6.6,4.3V27h-3.4v29.1h3.4V45.6
	c0-4.5,2-7.1,5.4-7.1C72.9,38.5,74.4,40.3,74.4,43.8z M102,68h-3.4l-3.7,20.7c-0.3,1.7-0.5,2.8-0.6,3.8h-0.1
	c-0.4-1.2-0.8-2.2-1.3-3.6L84.7,68h-4.5l-5,28.5h3.4l3.7-20.8c0.3-1.7,0.4-2.8,0.5-3.8h0.1c0.4,1.3,0.8,2.2,1.3,3.6l8.3,20.9H97
	L102,68z M122.9,83.7c0-5.3-3.5-7.7-8-7.7c-7.3,0-10.4,6.5-10.4,12.1c0,6.9,4.6,8.9,8.7,8.9c3.8,0,6.8-1.7,8.3-5.5l-2.8-1.3
	c-1.2,2.7-2.8,3.8-5.4,3.8c-3.1,0-5.5-1.6-5.5-6.2v-0.3h14.4C122.7,86.3,122.9,84.9,122.9,83.7z M145.5,96.5l9.2-20h-3.6L145,91
	c-0.3,0.7-0.6,1.6-0.8,2.4H144c0-0.8-0.1-1.6-0.1-2.4l-1.1-14.5h-4L132.6,91c-0.3,0.7-0.7,1.6-0.9,2.4h-0.1c0-0.8,0-1.6,0-2.4
	l-1.1-14.5h-3.2l2.1,20h3.7l6.3-14.7c0.3-0.6,0.7-1.6,0.8-2.2h0.1c0,0.6,0,1.6,0,2.2l1.2,14.7H145.5z M159.9,81.9
	c0-1.8,1.2-3.2,4.3-3.2c2,0,4.2,0.5,4.7,4.1l3.3-0.8c-0.5-4.6-4.1-6.1-8-6.1c-5.4,0-7.8,2.9-7.8,6.2c0,2.5,1.4,4.7,4.8,5.4l3.4,0.7
	c1.8,0.4,2.6,0.9,2.6,2.6s-0.8,3.3-4.4,3.3c-2.8,0-4.6-1.1-5.1-4.4l-3.4,0.6c0.6,5.1,4,6.7,8.3,6.7c5.7,0,8.1-2.8,8.1-6.3
	c0-2.5-1.3-4.7-4.6-5.4l-3.4-0.7C160.8,84.3,159.9,83.5,159.9,81.9z M188.4,27H185v12c-1.3-2.4-3.2-3.4-5.9-3.4
	c-5,0-8.5,4.3-8.5,10.5c0,6.3,3.3,10.5,8.1,10.5c3.1,0,5.3-1.5,6.5-4.2v3.7h3.2V27z M211.6,44.6c0-6-3.1-9.1-8.5-9.1
	c-5.7,0-9.1,4-9.1,10.7c0,6.6,3.4,10.3,9.1,10.3c4,0,7-1.9,8.4-5.6l-2.8-1.2c-0.9,2.4-2.8,3.8-5.3,3.8c-3.6,0-5.9-2.6-6-6.5h14.2
	V44.6z"/>
</svg>
