<svg xmlns="http://www.w3.org/2000/svg" viewBox="0 0 774 481"><defs><style>.cls-1{fill:#131516;}</style></defs><title>the_hum_black</title><g id="Layer_2" data-name="Layer 2"><g id="Layer_1-2" data-name="Layer 1"><path class="cls-1" d="M412.45,175.54c0-2.5-1.19-3.94-3.26-3.94-4.25,0-7.76,6.51-9.07,13.21C407.38,185.12,412.45,180.8,412.45,175.54Z"/><path class="cls-1" d="M0,0V481H774V0ZM409.82,169.28c5.32,0,8.7,2.76,8.7,6.57,0,6.7-9.2,11.52-18.65,10.83a20.55,20.55,0,0,0-.19,2.82c0,5.2,2.44,7.7,6.51,7.7,3.76,0,8.2-3.13,10.2-7.95l.82.31c-2,7.77-7.58,11.84-13.77,11.84s-10.65-4.45-10.65-11.65C392.79,179.36,400.3,169.28,409.82,169.28Zm-47.26-13.46L374,153.76l-6.14,26.1.25.06c3-6.76,8.2-10.64,13.27-10.64,3.51,0,5.33,2.19,5.33,5.26a28.3,28.3,0,0,1-1.57,7.07l-2.94,9.52a16.4,16.4,0,0,0-1.07,4.44c0,1.19.5,1.76,1.51,1.76,2.5,0,4.32-3.63,5.32-7.14l.81.06c-.81,5.39-3.69,11.15-9.58,11.15-2.94,0-4.63-1.69-4.63-4.7,0-1.81.94-4.63,1.63-6.82l3.07-9.64a18.86,18.86,0,0,0,1.06-5c0-1.31-.56-2-2.25-2-1.94,0-4.89,1.31-7.33,5.26-2.82,4.44-4.07,8.32-7.26,22.16h-5.95l8.77-40.26c.18-.81.18-1.06-.38-1.5l-3.38-2.38Zm-38.05.88h35l-2.57,12.64h-.81l-3.57-9.07c-.44-.94-.5-1-1.44-1h-6.2l-7.32,36.18c-.19.75-.06,1,.37,1.25l5,3.13v.88H324.19v-.88l5.64-3.13c.69-.31.75-.5.94-1.25l7.32-36.18h-5.88c-.94,0-1,.06-1.95,1l-7.51,9.07h-.81ZM289.83,324.6H265.89V246.9H183v77.7H159.09V155.12H183v69.72h82.86V155.12h23.94Zm130.05,0H403.21l-2.81-21.41c-5.17,10.81-19.25,24.05-40.85,24.05-19.48,0-40.37-11-40.37-42.8V212.51h21.36v70.82c0,19,12.67,26.7,26.52,26.7,11.27,0,30.75-5.51,31.46-36.84V212.51h21.36Zm195.53,0H593.58V174.13L541.71,324.6H522.46L472.93,174.13V324.6H450.4V155.12H488L532.55,292l46.24-136.85h36.62Z"/></g></g></svg>